
<svg width="74px" height="72px" viewBox="0 0 74 72" version="1.1" xmlns="http://www.w3.org/2000/svg" xmlns:xlink="http://www.w3.org/1999/xlink">
    <path d="M73.3,37 C73.3,52.2 63.7,65.9 49.5,71.1 C49.4,71.1 49.3,71.2 49.2,71.2 C49,71.2 48.8,71.1 48.6,71 C48.3,70.8 48.2,70.5 48.2,70.2 L48.2,64.7 C48.2,61 46.3,57.5 43.2,55.5 C42.9,55.3 42.7,54.8 42.8,54.4 C42.9,54 43.3,53.7 43.7,53.6 C49.3,53 53.6,48.3 53.6,42.6 L53.6,39.3 C53.6,38.5 53.5,37.7 53.3,36.9 C53.2,36.6 53.3,36.3 53.5,36.1 C53.7,35.9 54,35.7 54.3,35.7 L58.3,35.7 C59.3,35.7 60.1,34.9 60.1,33.9 C60.1,32.9 59.3,32.1 58.3,32.1 L51.8,32.1 C51.3,32.1 50.9,31.8 50.8,31.3 L49.1,23.8 L48,28.5 C47.9,28.8 47.7,29 47.5,29.2 C47.2,29.3 46.9,29.3 46.7,29.2 C45.4,28.7 44,28.4 42.5,28.4 L31.5,28.4 C30,28.4 28.7,28.7 27.3,29.2 C27,29.3 26.7,29.3 26.5,29.2 C26.2,29 26,28.8 26,28.5 L24.9,24 L23.2,31.5 C23.1,32 22.7,32.3 22.2,32.3 L15.7,32.3 C15.2,32.3 14.8,32.5 14.5,32.8 C14.2,33.1 14,33.5 14,34 C14,35 14.8,35.8 15.8,35.8 L19.8,35.8 C20.1,35.8 20.4,35.9 20.6,36.2 C20.8,36.4 20.9,36.7 20.8,37 C20.6,37.8 20.5,38.6 20.5,39.4 L20.5,42.7 C20.5,48.4 24.8,53.1 30.4,53.7 C30.8,53.7 31.2,54 31.3,54.5 C31.4,54.9 31.2,55.3 30.9,55.6 C27.8,57.6 25.9,61.1 25.9,64.8 L25.9,70.3 C25.9,70.6 25.7,70.9 25.5,71.1 C25.2,71.3 24.9,71.3 24.6,71.2 C10.2,65.9 0.7,52.2 0.7,37 C0.7,17 17,0.7 37,0.7 C57,0.7 73.3,17 73.3,37 Z" id="Path"></path>
</svg>